<?xml version="1.0" encoding="UTF-8"?>
<svg xmlns="http://www.w3.org/2000/svg" viewBox="0 0 64 64" width="64" height="64">
  <title>Kamath Robotics Favicon</title>
  <rect x="0" y="0" width="64" height="64" fill="#0a0a0a"/>
  <g>
    <rect x="12" y="21" width="3" height="3" fill="#ff8c00"/>
<rect x="9" y="24" width="3" height="3" fill="#ff8c00"/>
<rect x="6" y="27" width="3" height="3" fill="#ff8c00"/>
<rect x="3" y="30" width="3" height="3" fill="#ff8c00"/>
<rect x="6" y="33" width="3" height="3" fill="#ff8c00"/>
<rect x="9" y="36" width="3" height="3" fill="#ff8c00"/>
<rect x="12" y="39" width="3" height="3" fill="#ff8c00"/>
<rect x="18" y="21" width="3" height="3" fill="#ffffff"/>
<rect x="27" y="21" width="3" height="3" fill="#ffffff"/>
<rect x="18" y="24" width="3" height="3" fill="#ffffff"/>
<rect x="24" y="24" width="3" height="3" fill="#ffffff"/>
<rect x="18" y="27" width="3" height="3" fill="#ffffff"/>
<rect x="21" y="27" width="3" height="3" fill="#ffffff"/>
<rect x="18" y="30" width="3" height="3" fill="#ffffff"/>
<rect x="21" y="30" width="3" height="3" fill="#ffffff"/>
<rect x="18" y="33" width="3" height="3" fill="#ffffff"/>
<rect x="24" y="33" width="3" height="3" fill="#ffffff"/>
<rect x="18" y="36" width="3" height="3" fill="#ffffff"/>
<rect x="27" y="36" width="3" height="3" fill="#ffffff"/>
<rect x="18" y="39" width="3" height="3" fill="#ffffff"/>
<rect x="27" y="39" width="3" height="3" fill="#ffffff"/>
<rect x="33" y="21" width="3" height="3" fill="#ffffff"/>
<rect x="36" y="21" width="3" height="3" fill="#ffffff"/>
<rect x="39" y="21" width="3" height="3" fill="#ffffff"/>
<rect x="33" y="24" width="3" height="3" fill="#ffffff"/>
<rect x="42" y="24" width="3" height="3" fill="#ffffff"/>
<rect x="33" y="27" width="3" height="3" fill="#ffffff"/>
<rect x="42" y="27" width="3" height="3" fill="#ffffff"/>
<rect x="33" y="30" width="3" height="3" fill="#ffffff"/>
<rect x="36" y="30" width="3" height="3" fill="#ffffff"/>
<rect x="39" y="30" width="3" height="3" fill="#ffffff"/>
<rect x="33" y="33" width="3" height="3" fill="#ffffff"/>
<rect x="39" y="33" width="3" height="3" fill="#ffffff"/>
<rect x="33" y="36" width="3" height="3" fill="#ffffff"/>
<rect x="42" y="36" width="3" height="3" fill="#ffffff"/>
<rect x="33" y="39" width="3" height="3" fill="#ffffff"/>
<rect x="42" y="39" width="3" height="3" fill="#ffffff"/>
<rect x="48" y="21" width="3" height="3" fill="#ff8c00"/>
<rect x="51" y="24" width="3" height="3" fill="#ff8c00"/>
<rect x="54" y="27" width="3" height="3" fill="#ff8c00"/>
<rect x="57" y="30" width="3" height="3" fill="#ff8c00"/>
<rect x="54" y="33" width="3" height="3" fill="#ff8c00"/>
<rect x="51" y="36" width="3" height="3" fill="#ff8c00"/>
<rect x="48" y="39" width="3" height="3" fill="#ff8c00"/>
  </g>
</svg>