<?xml version="1.0" encoding="UTF-8"?>
<svg xmlns="http://www.w3.org/2000/svg" viewBox="0 0 580 64" width="580" height="64">
  <title>PLAYGROUND</title>
  <g>
    <!-- < orange -->
    <rect x="30" y="4" width="8" height="8" fill="#ff8c00"/>
    <rect x="22" y="12" width="8" height="8" fill="#ff8c00"/>
    <rect x="14" y="20" width="8" height="8" fill="#ff8c00"/>
    <rect x="6" y="28" width="8" height="8" fill="#ff8c00"/>
    <rect x="14" y="36" width="8" height="8" fill="#ff8c00"/>
    <rect x="22" y="44" width="8" height="8" fill="#ff8c00"/>
    <rect x="30" y="52" width="8" height="8" fill="#ff8c00"/>

    <!-- P -->
    <rect x="54" y="4" width="8" height="8" fill="#ffffff"/>
    <rect x="62" y="4" width="8" height="8" fill="#ffffff"/>
    <rect x="70" y="4" width="8" height="8" fill="#ffffff"/>
    <rect x="78" y="4" width="8" height="8" fill="#ffffff"/>
    <rect x="54" y="12" width="8" height="8" fill="#ffffff"/>
    <rect x="86" y="12" width="8" height="8" fill="#ffffff"/>
    <rect x="54" y="20" width="8" height="8" fill="#ffffff"/>
    <rect x="86" y="20" width="8" height="8" fill="#ffffff"/>
    <rect x="54" y="28" width="8" height="8" fill="#ffffff"/>
    <rect x="62" y="28" width="8" height="8" fill="#ffffff"/>
    <rect x="70" y="28" width="8" height="8" fill="#ffffff"/>
    <rect x="78" y="28" width="8" height="8" fill="#ffffff"/>
    <rect x="54" y="36" width="8" height="8" fill="#ffffff"/>
    <rect x="54" y="44" width="8" height="8" fill="#ffffff"/>
    <rect x="54" y="52" width="8" height="8" fill="#ffffff"/>

    <!-- L -->
    <rect x="102" y="4" width="8" height="8" fill="#ffffff"/>
    <rect x="102" y="12" width="8" height="8" fill="#ffffff"/>
    <rect x="102" y="20" width="8" height="8" fill="#ffffff"/>
    <rect x="102" y="28" width="8" height="8" fill="#ffffff"/>
    <rect x="102" y="36" width="8" height="8" fill="#ffffff"/>
    <rect x="102" y="44" width="8" height="8" fill="#ffffff"/>
    <rect x="102" y="52" width="8" height="8" fill="#ffffff"/>
    <rect x="110" y="52" width="8" height="8" fill="#ffffff"/>
    <rect x="118" y="52" width="8" height="8" fill="#ffffff"/>
    <rect x="126" y="52" width="8" height="8" fill="#ffffff"/>
    <rect x="134" y="52" width="8" height="8" fill="#ffffff"/>

    <!-- A (from logo) -->
    <rect x="158" y="4" width="8" height="8" fill="#ffffff"/>
    <rect x="166" y="4" width="8" height="8" fill="#ffffff"/>
    <rect x="174" y="4" width="8" height="8" fill="#ffffff"/>
    <rect x="150" y="12" width="8" height="8" fill="#ffffff"/>
    <rect x="182" y="12" width="8" height="8" fill="#ffffff"/>
    <rect x="150" y="20" width="8" height="8" fill="#ffffff"/>
    <rect x="182" y="20" width="8" height="8" fill="#ffffff"/>
    <rect x="150" y="28" width="8" height="8" fill="#ffffff"/>
    <rect x="158" y="28" width="8" height="8" fill="#ffffff"/>
    <rect x="166" y="28" width="8" height="8" fill="#ffffff"/>
    <rect x="174" y="28" width="8" height="8" fill="#ffffff"/>
    <rect x="182" y="28" width="8" height="8" fill="#ffffff"/>
    <rect x="150" y="36" width="8" height="8" fill="#ffffff"/>
    <rect x="182" y="36" width="8" height="8" fill="#ffffff"/>
    <rect x="150" y="44" width="8" height="8" fill="#ffffff"/>
    <rect x="182" y="44" width="8" height="8" fill="#ffffff"/>
    <rect x="150" y="52" width="8" height="8" fill="#ffffff"/>
    <rect x="182" y="52" width="8" height="8" fill="#ffffff"/>

    <!-- Y -->
    <rect x="198" y="4" width="8" height="8" fill="#ffffff"/>
    <rect x="230" y="4" width="8" height="8" fill="#ffffff"/>
    <rect x="198" y="12" width="8" height="8" fill="#ffffff"/>
    <rect x="230" y="12" width="8" height="8" fill="#ffffff"/>
    <rect x="206" y="20" width="8" height="8" fill="#ffffff"/>
    <rect x="222" y="20" width="8" height="8" fill="#ffffff"/>
    <rect x="214" y="28" width="8" height="8" fill="#ffffff"/>
    <rect x="214" y="36" width="8" height="8" fill="#ffffff"/>
    <rect x="214" y="44" width="8" height="8" fill="#ffffff"/>
    <rect x="214" y="52" width="8" height="8" fill="#ffffff"/>

    <!-- G -->
    <rect x="254" y="4" width="8" height="8" fill="#ffffff"/>
    <rect x="262" y="4" width="8" height="8" fill="#ffffff"/>
    <rect x="270" y="4" width="8" height="8" fill="#ffffff"/>
    <rect x="246" y="12" width="8" height="8" fill="#ffffff"/>
    <rect x="278" y="12" width="8" height="8" fill="#ffffff"/>
    <rect x="246" y="20" width="8" height="8" fill="#ffffff"/>
    <rect x="246" y="28" width="8" height="8" fill="#ffffff"/>
    <rect x="262" y="28" width="8" height="8" fill="#ffffff"/>
    <rect x="270" y="28" width="8" height="8" fill="#ffffff"/>
    <rect x="278" y="28" width="8" height="8" fill="#ffffff"/>
    <rect x="246" y="36" width="8" height="8" fill="#ffffff"/>
    <rect x="278" y="36" width="8" height="8" fill="#ffffff"/>
    <rect x="246" y="44" width="8" height="8" fill="#ffffff"/>
    <rect x="278" y="44" width="8" height="8" fill="#ffffff"/>
    <rect x="254" y="52" width="8" height="8" fill="#ffffff"/>
    <rect x="262" y="52" width="8" height="8" fill="#ffffff"/>
    <rect x="270" y="52" width="8" height="8" fill="#ffffff"/>

    <!-- R (from logo) -->
    <rect x="294" y="4" width="8" height="8" fill="#ffffff"/>
    <rect x="302" y="4" width="8" height="8" fill="#ffffff"/>
    <rect x="310" y="4" width="8" height="8" fill="#ffffff"/>
    <rect x="318" y="4" width="8" height="8" fill="#ffffff"/>
    <rect x="294" y="12" width="8" height="8" fill="#ffffff"/>
    <rect x="326" y="12" width="8" height="8" fill="#ffffff"/>
    <rect x="294" y="20" width="8" height="8" fill="#ffffff"/>
    <rect x="326" y="20" width="8" height="8" fill="#ffffff"/>
    <rect x="294" y="28" width="8" height="8" fill="#ffffff"/>
    <rect x="302" y="28" width="8" height="8" fill="#ffffff"/>
    <rect x="310" y="28" width="8" height="8" fill="#ffffff"/>
    <rect x="318" y="28" width="8" height="8" fill="#ffffff"/>
    <rect x="294" y="36" width="8" height="8" fill="#ffffff"/>
    <rect x="310" y="36" width="8" height="8" fill="#ffffff"/>
    <rect x="294" y="44" width="8" height="8" fill="#ffffff"/>
    <rect x="318" y="44" width="8" height="8" fill="#ffffff"/>
    <rect x="294" y="52" width="8" height="8" fill="#ffffff"/>
    <rect x="326" y="52" width="8" height="8" fill="#ffffff"/>

    <!-- O (from logo) -->
    <rect x="350" y="4" width="8" height="8" fill="#ffffff"/>
    <rect x="358" y="4" width="8" height="8" fill="#ffffff"/>
    <rect x="366" y="4" width="8" height="8" fill="#ffffff"/>
    <rect x="342" y="12" width="8" height="8" fill="#ffffff"/>
    <rect x="374" y="12" width="8" height="8" fill="#ffffff"/>
    <rect x="342" y="20" width="8" height="8" fill="#ffffff"/>
    <rect x="374" y="20" width="8" height="8" fill="#ffffff"/>
    <rect x="342" y="28" width="8" height="8" fill="#ffffff"/>
    <rect x="374" y="28" width="8" height="8" fill="#ffffff"/>
    <rect x="342" y="36" width="8" height="8" fill="#ffffff"/>
    <rect x="374" y="36" width="8" height="8" fill="#ffffff"/>
    <rect x="342" y="44" width="8" height="8" fill="#ffffff"/>
    <rect x="374" y="44" width="8" height="8" fill="#ffffff"/>
    <rect x="350" y="52" width="8" height="8" fill="#ffffff"/>
    <rect x="358" y="52" width="8" height="8" fill="#ffffff"/>
    <rect x="366" y="52" width="8" height="8" fill="#ffffff"/>

    <!-- U -->
    <rect x="390" y="4" width="8" height="8" fill="#ffffff"/>
    <rect x="422" y="4" width="8" height="8" fill="#ffffff"/>
    <rect x="390" y="12" width="8" height="8" fill="#ffffff"/>
    <rect x="422" y="12" width="8" height="8" fill="#ffffff"/>
    <rect x="390" y="20" width="8" height="8" fill="#ffffff"/>
    <rect x="422" y="20" width="8" height="8" fill="#ffffff"/>
    <rect x="390" y="28" width="8" height="8" fill="#ffffff"/>
    <rect x="422" y="28" width="8" height="8" fill="#ffffff"/>
    <rect x="390" y="36" width="8" height="8" fill="#ffffff"/>
    <rect x="422" y="36" width="8" height="8" fill="#ffffff"/>
    <rect x="390" y="44" width="8" height="8" fill="#ffffff"/>
    <rect x="422" y="44" width="8" height="8" fill="#ffffff"/>
    <rect x="398" y="52" width="8" height="8" fill="#ffffff"/>
    <rect x="406" y="52" width="8" height="8" fill="#ffffff"/>
    <rect x="414" y="52" width="8" height="8" fill="#ffffff"/>

    <!-- N -->
    <rect x="438" y="4" width="8" height="8" fill="#ffffff"/>
    <rect x="470" y="4" width="8" height="8" fill="#ffffff"/>
    <rect x="438" y="12" width="8" height="8" fill="#ffffff"/>
    <rect x="446" y="12" width="8" height="8" fill="#ffffff"/>
    <rect x="470" y="12" width="8" height="8" fill="#ffffff"/>
    <rect x="438" y="20" width="8" height="8" fill="#ffffff"/>
    <rect x="454" y="20" width="8" height="8" fill="#ffffff"/>
    <rect x="470" y="20" width="8" height="8" fill="#ffffff"/>
    <rect x="438" y="28" width="8" height="8" fill="#ffffff"/>
    <rect x="462" y="28" width="8" height="8" fill="#ffffff"/>
    <rect x="470" y="28" width="8" height="8" fill="#ffffff"/>
    <rect x="438" y="36" width="8" height="8" fill="#ffffff"/>
    <rect x="470" y="36" width="8" height="8" fill="#ffffff"/>
    <rect x="438" y="44" width="8" height="8" fill="#ffffff"/>
    <rect x="470" y="44" width="8" height="8" fill="#ffffff"/>
    <rect x="438" y="52" width="8" height="8" fill="#ffffff"/>
    <rect x="470" y="52" width="8" height="8" fill="#ffffff"/>

    <!-- D -->
    <rect x="486" y="4" width="8" height="8" fill="#ffffff"/>
    <rect x="494" y="4" width="8" height="8" fill="#ffffff"/>
    <rect x="502" y="4" width="8" height="8" fill="#ffffff"/>
    <rect x="510" y="4" width="8" height="8" fill="#ffffff"/>
    <rect x="486" y="12" width="8" height="8" fill="#ffffff"/>
    <rect x="518" y="12" width="8" height="8" fill="#ffffff"/>
    <rect x="486" y="20" width="8" height="8" fill="#ffffff"/>
    <rect x="518" y="20" width="8" height="8" fill="#ffffff"/>
    <rect x="486" y="28" width="8" height="8" fill="#ffffff"/>
    <rect x="518" y="28" width="8" height="8" fill="#ffffff"/>
    <rect x="486" y="36" width="8" height="8" fill="#ffffff"/>
    <rect x="518" y="36" width="8" height="8" fill="#ffffff"/>
    <rect x="486" y="44" width="8" height="8" fill="#ffffff"/>
    <rect x="518" y="44" width="8" height="8" fill="#ffffff"/>
    <rect x="486" y="52" width="8" height="8" fill="#ffffff"/>
    <rect x="494" y="52" width="8" height="8" fill="#ffffff"/>
    <rect x="502" y="52" width="8" height="8" fill="#ffffff"/>
    <rect x="510" y="52" width="8" height="8" fill="#ffffff"/>

    <!-- > orange -->
    <rect x="542" y="4" width="8" height="8" fill="#ff8c00"/>
    <rect x="550" y="12" width="8" height="8" fill="#ff8c00"/>
    <rect x="558" y="20" width="8" height="8" fill="#ff8c00"/>
    <rect x="566" y="28" width="8" height="8" fill="#ff8c00"/>
    <rect x="558" y="36" width="8" height="8" fill="#ff8c00"/>
    <rect x="550" y="44" width="8" height="8" fill="#ff8c00"/>
    <rect x="542" y="52" width="8" height="8" fill="#ff8c00"/>
  </g>
</svg>
